<?xml version="1.0" standalone="no"?>
<svg xmlns="http://www.w3.org/2000/svg" viewBox="0 0 140.592 27.533" width="140.592" height="27.533"><g fill="#ff5576" color="#ff5576" transform="translate(0, 0) scale(0.5471699)"><svg width="53.0" height="48.0" x="0.0" y="0.0" viewBox="0 0 53 48"><path fill="currentColor" fill-rule="evenodd" d="M14.18 0L0 8.432v16.864l14.18 8.435L24 27.846v11.72L38.181 48l14.181-8.434V22.704l-14.181-8.433-9.818 5.883V8.432L14.18 0zM4.364 22.814V10.915l9.817-5.84L24 10.915v11.853l-9.819 5.885-9.817-5.839zm23.999 14.27V25.23l9.818-5.884 9.818 5.837v11.9L38.18 42.92l-9.818-5.837z"></path></svg></g><line x1="41" y1="1" x2="41" y2="25.265" stroke="#0b0cac" stroke-linecap="round"></line><path fill="#0b0cac" fill-rule="nonzero" d="M1.08 17.40Q0.60 17.40 0.30 17.09Q0 16.78 0 16.32L0 16.32Q0 16.13 0.12 15.84L0.12 15.84L6.24 1.39Q6.43 0.96 6.78 0.68Q7.13 0.41 7.63 0.41L7.63 0.41L7.87 0.41Q8.38 0.41 8.72 0.68Q9.07 0.96 9.26 1.39L9.26 1.39L15.38 15.84Q15.50 16.13 15.50 16.32L15.50 16.32Q15.50 16.78 15.20 17.09Q14.90 17.40 14.42 17.40L14.42 17.40Q14.09 17.40 13.81 17.22Q13.54 17.04 13.39 16.73L13.39 16.73L11.83 12.98L3.67 12.98L2.11 16.73Q1.97 17.04 1.69 17.22Q1.42 17.40 1.08 17.40L1.08 17.40ZM7.75 3.19L4.51 10.99L10.99 10.99L7.75 3.19ZM20.11 17.40Q19.66 17.40 19.34 17.09Q19.03 16.78 19.03 16.32L19.03 16.32L19.03 1.63Q19.03 1.18 19.34 0.85Q19.66 0.53 20.11 0.53L20.11 0.53L25.58 0.53Q27.86 0.53 29.30 1.30Q30.74 2.06 31.37 3.26Q31.99 4.46 31.99 5.86L31.99 5.86Q31.99 7.25 31.37 8.45Q30.74 9.65 29.30 10.42Q27.86 11.18 25.58 11.18L25.58 11.18L21.22 11.18L21.22 16.32Q21.22 16.78 20.89 17.09Q20.57 17.40 20.11 17.40L20.11 17.40ZM21.22 9.12L25.37 9.12Q27.82 9.12 28.81 8.18Q29.81 7.25 29.81 5.86L29.81 5.86Q29.81 4.46 28.81 3.53Q27.82 2.59 25.37 2.59L25.37 2.59L21.22 2.59L21.22 9.12ZM36.24 17.40Q35.78 17.40 35.47 17.09Q35.16 16.78 35.16 16.32L35.16 16.32L35.16 1.51Q35.16 1.06 35.47 0.73Q35.78 0.41 36.24 0.41L36.24 0.41Q36.70 0.41 37.02 0.73Q37.34 1.06 37.34 1.51L37.34 1.51L37.34 16.32Q37.34 16.78 37.02 17.09Q36.70 17.40 36.24 17.40L36.24 17.40ZM43.08 17.40Q42.62 17.40 42.31 17.09Q42 16.78 42 16.32L42 16.32L42 1.51Q42 1.06 42.31 0.73Q42.62 0.41 43.08 0.41L43.08 0.41Q43.54 0.41 43.86 0.73Q44.18 1.06 44.18 1.51L44.18 1.51L44.18 9.14L52.39 0.79Q52.73 0.41 53.21 0.41L53.21 0.41Q53.62 0.41 53.92 0.68Q54.22 0.96 54.22 1.37L54.22 1.37Q54.22 1.85 53.95 2.11L53.95 2.11L48.41 7.63L54.77 15.65Q55.03 15.98 55.03 16.34L55.03 16.34Q55.06 16.78 54.74 17.09Q54.43 17.40 53.98 17.40L53.98 17.40Q53.42 17.40 53.11 16.97L53.11 16.97L46.92 9.07L44.18 11.83L44.18 16.32Q44.18 16.78 43.86 17.09Q43.54 17.40 43.08 17.40L43.08 17.40ZM58.68 2.54Q58.18 2.54 57.82 2.18Q57.46 1.82 57.46 1.32L57.46 1.32L57.46 1.22Q57.46 0.72 57.82 0.36Q58.18 0 58.68 0L58.68 0L58.82 0Q59.33 0 59.69 0.36Q60.05 0.72 60.05 1.22L60.05 1.22L60.05 1.32Q60.05 1.82 59.69 2.18Q59.33 2.54 58.82 2.54L58.82 2.54L58.68 2.54ZM58.73 17.40Q58.27 17.40 57.96 17.09Q57.65 16.78 57.65 16.32L57.65 16.32L57.65 6.02Q57.65 5.57 57.96 5.24Q58.27 4.92 58.73 4.92L58.73 4.92Q59.21 4.92 59.52 5.23Q59.83 5.54 59.83 6.02L59.83 6.02L59.83 16.32Q59.83 16.78 59.51 17.09Q59.18 17.40 58.73 17.40L58.73 17.40ZM64.70 17.40Q64.25 17.40 63.94 17.09Q63.62 16.78 63.62 16.32L63.62 16.32L63.62 6.02Q63.62 5.57 63.94 5.24Q64.25 4.92 64.70 4.92L64.70 4.92Q65.16 4.92 65.48 5.24Q65.81 5.57 65.81 6.02L65.81 6.02L65.81 7.01Q66.72 6.00 67.78 5.40Q68.83 4.80 70.27 4.80L70.27 4.80Q71.59 4.80 72.56 5.42Q73.54 6.05 74.05 7.13Q74.57 8.21 74.57 9.50L74.57 9.50L74.57 16.32Q74.57 16.78 74.24 17.09Q73.92 17.40 73.46 17.40L73.46 17.40Q73.01 17.40 72.70 17.09Q72.38 16.78 72.38 16.32L72.38 16.32L72.38 9.74Q72.38 6.82 69.74 6.82L69.74 6.82Q68.54 6.82 67.60 7.44Q66.65 8.06 65.81 9.12L65.81 9.12L65.81 16.32Q65.81 16.78 65.48 17.09Q65.16 17.40 64.70 17.40L64.70 17.40ZM83.95 23.04Q82.56 23.04 81.14 22.68Q79.73 22.32 78.82 21.79L78.82 21.79Q78.38 21.53 78.38 20.95L78.38 20.95Q78.38 20.57 78.66 20.27Q78.94 19.97 79.34 19.97L79.34 19.97Q79.54 19.97 79.78 20.06L79.78 20.06Q81.60 20.98 83.74 20.98L83.74 20.98Q87.41 20.98 87.41 17.06L87.41 17.06L87.41 15.46Q85.70 17.28 83.30 17.28L83.30 17.28Q81.89 17.28 80.56 16.57Q79.22 15.86 78.36 14.46Q77.50 13.06 77.50 11.04L77.50 11.04Q77.50 9.02 78.36 7.62Q79.22 6.22 80.56 5.51Q81.89 4.80 83.30 4.80L83.30 4.80Q85.70 4.80 87.41 6.62L87.41 6.62L87.41 6.02Q87.41 5.57 87.72 5.24Q88.03 4.92 88.49 4.92L88.49 4.92Q88.94 4.92 89.27 5.24Q89.59 5.57 89.59 6.02L89.59 6.02L89.59 16.75Q89.59 19.78 88.13 21.41Q86.66 23.04 83.95 23.04L83.95 23.04ZM83.76 15.29Q84.89 15.29 85.75 14.81Q86.62 14.33 87.41 13.51L87.41 13.51L87.41 8.57Q86.62 7.75 85.75 7.27Q84.89 6.79 83.76 6.79L83.76 6.79Q81.96 6.79 80.82 7.88Q79.68 8.98 79.68 11.04L79.68 11.04Q79.68 13.10 80.82 14.20Q81.96 15.29 83.76 15.29L83.76 15.29Z" transform="translate(51, 4.493)"></path></svg>